<?xml version="1.0" encoding="utf-8"?>
<!-- Generator: Adobe Illustrator 23.0.1, SVG Export Plug-In . SVG Version: 6.00 Build 0)  -->
<svg version="1.1" id="Layer_1" xmlns="http://www.w3.org/2000/svg" xmlns:xlink="http://www.w3.org/1999/xlink" x="0px" y="0px"
	 viewBox="0 0 324.8 95.4" style="enable-background:new 0 0 324.8 95.4;" xml:space="preserve">
<style type="text/css">
	.st0{fill:none;stroke:#000000;stroke-miterlimit:10;}
	.st1{fill:none;stroke:#000000;stroke-width:16;stroke-miterlimit:10;}
	.st2{fill:#ED2024;}
	.st3{fill:#FFFFFF;}
</style>
<g>
	<polygon class="st2" points="38.3,14.7 97.9,14.7 114.5,31 69.5,84.3 23.2,32.4 38.3,14.7 	"/>
	<g>
		<path class="st3" d="M48.6,42.1c0-3.7,0.6-6.9,1.7-9.7c1.1-2.8,2.6-5.1,4.5-6.9c1.8-1.8,4-3.2,6.4-4.2c2.4-0.9,4.9-1.4,7.4-1.4
			c5.9,0,10.5,1.8,14,5.4c3.4,3.6,5.1,8.9,5.1,15.9c0,0.7,0,1.4-0.1,2.2c-0.1,0.8-0.1,1.5-0.2,2.2H60.6c0.3,2.4,1.4,4.3,3.4,5.8
			c2,1.4,4.7,2.1,8,2.1c2.2,0,4.3-0.2,6.4-0.6c2.1-0.4,3.8-0.9,5.1-1.5l1.6,9.5c-0.6,0.3-1.5,0.6-2.5,0.9c-1.1,0.3-2.2,0.6-3.5,0.8
			c-1.3,0.2-2.7,0.4-4.1,0.6c-1.5,0.2-2.9,0.2-4.4,0.2c-3.7,0-7-0.6-9.7-1.7c-2.8-1.1-5-2.6-6.9-4.5c-1.8-1.9-3.2-4.2-4-6.8
			C49,48,48.6,45.2,48.6,42.1z M76.2,37.6c-0.1-1-0.2-2-0.5-2.9c-0.3-0.9-0.7-1.8-1.3-2.5c-0.6-0.7-1.4-1.3-2.3-1.8
			c-0.9-0.5-2.1-0.7-3.4-0.7c-1.3,0-2.4,0.2-3.4,0.7c-0.9,0.4-1.7,1-2.4,1.8c-0.6,0.7-1.1,1.6-1.5,2.6c-0.3,1-0.6,2-0.7,3H76.2z"/>
		<path d="M112.3,49.5c0-1.9,0.3-3.7,0.9-5.3c0.6-1.7,1.5-3.1,2.7-4.4c1.2-1.2,2.6-2.2,4.2-3c1.7-0.7,3.5-1.1,5.7-1.1
			c1.4,0,2.7,0.1,3.8,0.4c1.2,0.2,2.3,0.6,3.4,1.1l-1.5,5.9c-0.7-0.3-1.5-0.5-2.3-0.7c-0.8-0.2-1.8-0.3-2.8-0.3
			c-2.2,0-3.8,0.7-4.9,2c-1.1,1.4-1.6,3.1-1.6,5.4c0,2.4,0.5,4.2,1.5,5.5c1,1.3,2.8,1.9,5.3,1.9c0.9,0,1.9-0.1,2.9-0.2
			c1-0.2,2-0.4,2.8-0.8l1,6.1c-0.9,0.4-1.9,0.7-3.2,0.9c-1.3,0.3-2.7,0.4-4.3,0.4c-2.4,0-4.4-0.4-6.2-1.1c-1.7-0.7-3.1-1.7-4.2-2.9
			c-1.1-1.2-1.9-2.7-2.4-4.3C112.5,53.3,112.3,51.5,112.3,49.5z"/>
		<path d="M160,49.5c0,2.1-0.3,3.9-0.9,5.6c-0.6,1.7-1.5,3.2-2.6,4.4c-1.1,1.2-2.5,2.1-4,2.8s-3.3,1-5.3,1c-1.9,0-3.7-0.3-5.2-1
			c-1.6-0.7-2.9-1.6-4-2.8c-1.1-1.2-2-2.7-2.6-4.4c-0.6-1.7-0.9-3.6-0.9-5.6c0-2.1,0.3-3.9,1-5.6s1.5-3.1,2.7-4.3
			c1.1-1.2,2.5-2.1,4.1-2.8c1.6-0.7,3.3-1,5.1-1c1.9,0,3.6,0.3,5.2,1s2.9,1.6,4,2.8c1.1,1.2,2,2.6,2.6,4.3
			C159.7,45.6,160,47.4,160,49.5z M152.5,49.5c0-2.3-0.5-4.1-1.4-5.4c-0.9-1.3-2.2-2-3.9-2c-1.7,0-3,0.7-3.9,2
			c-0.9,1.3-1.4,3.1-1.4,5.4c0,2.3,0.5,4.1,1.4,5.4c0.9,1.3,2.2,2,3.9,2c1.7,0,3-0.7,3.9-2C152,53.6,152.5,51.8,152.5,49.5z"/>
		<path d="M178.6,48.7c0-2.4-0.3-4.1-0.9-5.1s-1.7-1.5-3.2-1.5c-0.5,0-0.9,0-1.4,0.1c-0.5,0-1,0.1-1.4,0.2v20.2h-7.4V37.4
			c0.6-0.2,1.4-0.3,2.2-0.5c0.8-0.2,1.7-0.3,2.7-0.5c0.9-0.1,1.9-0.3,2.9-0.3c1-0.1,2-0.1,2.9-0.1c1.9,0,3.4,0.2,4.6,0.7
			s2.1,1.1,2.9,1.7c1.1-0.8,2.3-1.4,3.6-1.8c1.4-0.4,2.6-0.6,3.8-0.6c2.1,0,3.8,0.3,5.1,0.9c1.3,0.6,2.4,1.4,3.2,2.5
			c0.8,1.1,1.3,2.3,1.6,3.8c0.3,1.5,0.4,3.1,0.4,4.9v14.7h-7.4V48.7c0-2.4-0.3-4.1-0.9-5.1c-0.6-1-1.7-1.5-3.2-1.5
			c-0.4,0-1,0.1-1.7,0.3c-0.7,0.2-1.3,0.4-1.8,0.7c0.2,0.8,0.4,1.6,0.4,2.4c0.1,0.8,0.1,1.7,0.1,2.7v14.2h-7.4V48.7z"/>
		<path d="M219.9,48.7c0-2.4-0.3-4.1-0.9-5.1s-1.7-1.5-3.2-1.5c-0.5,0-0.9,0-1.4,0.1c-0.5,0-1,0.1-1.4,0.2v20.2h-7.4V37.4
			c0.6-0.2,1.4-0.3,2.2-0.5c0.8-0.2,1.7-0.3,2.7-0.5c0.9-0.1,1.9-0.3,2.9-0.3c1-0.1,2-0.1,2.9-0.1c1.9,0,3.4,0.2,4.6,0.7
			s2.1,1.1,2.9,1.7c1.1-0.8,2.3-1.4,3.6-1.8c1.4-0.4,2.6-0.6,3.8-0.6c2.1,0,3.8,0.3,5.1,0.9c1.3,0.6,2.4,1.4,3.2,2.5
			c0.8,1.1,1.3,2.3,1.6,3.8c0.3,1.5,0.4,3.1,0.4,4.9v14.7h-7.4V48.7c0-2.4-0.3-4.1-0.9-5.1c-0.6-1-1.7-1.5-3.2-1.5
			c-0.4,0-1,0.1-1.7,0.3c-0.7,0.2-1.3,0.4-1.8,0.7c0.2,0.8,0.4,1.6,0.4,2.4c0.1,0.8,0.1,1.7,0.1,2.7v14.2h-7.4V48.7z"/>
		<path d="M255,28.9c0,1.4-0.4,2.4-1.3,3.2c-0.9,0.8-1.9,1.2-3.1,1.2c-1.2,0-2.2-0.4-3.1-1.2c-0.9-0.8-1.3-1.8-1.3-3.2
			c0-1.4,0.4-2.4,1.3-3.2c0.9-0.8,1.9-1.2,3.1-1.2c1.2,0,2.2,0.4,3.1,1.2C254.5,26.5,255,27.6,255,28.9z M254.3,62.6h-7.4V36.5h7.4
			V62.6z"/>
		<path d="M258.5,49.5c0-1.9,0.3-3.7,0.9-5.3c0.6-1.7,1.5-3.1,2.7-4.4c1.2-1.2,2.6-2.2,4.2-3c1.7-0.7,3.5-1.1,5.7-1.1
			c1.4,0,2.7,0.1,3.8,0.4s2.3,0.6,3.4,1.1l-1.5,5.9c-0.7-0.3-1.5-0.5-2.3-0.7c-0.8-0.2-1.8-0.3-2.8-0.3c-2.2,0-3.8,0.7-4.9,2
			c-1.1,1.4-1.6,3.1-1.6,5.4c0,2.4,0.5,4.2,1.5,5.5c1,1.3,2.8,1.9,5.3,1.9c0.9,0,1.9-0.1,2.9-0.2c1-0.2,2-0.4,2.8-0.8l1,6.1
			c-0.9,0.4-1.9,0.7-3.2,0.9c-1.3,0.3-2.7,0.4-4.3,0.4c-2.4,0-4.4-0.4-6.2-1.1c-1.7-0.7-3.1-1.7-4.2-2.9c-1.1-1.2-1.9-2.7-2.4-4.3
			C258.7,53.3,258.5,51.5,258.5,49.5z"/>
		<path d="M290.6,57.3c1.4,0,2.3-0.1,2.9-0.4c0.6-0.3,0.8-0.8,0.8-1.5c0-0.6-0.4-1.1-1.1-1.6c-0.7-0.4-1.8-1-3.3-1.5
			c-1.2-0.4-2.2-0.9-3.2-1.3c-0.9-0.5-1.7-1-2.4-1.7s-1.2-1.4-1.5-2.3c-0.4-0.9-0.5-2-0.5-3.2c0-2.4,0.9-4.4,2.7-5.8
			c1.8-1.4,4.3-2.1,7.5-2.1c1.6,0,3.1,0.1,4.6,0.4c1.5,0.3,2.6,0.6,3.5,0.9l-1.3,5.8c-0.9-0.3-1.8-0.6-2.8-0.8s-2.1-0.3-3.4-0.3
			c-2.3,0-3.5,0.6-3.5,1.9c0,0.3,0,0.6,0.1,0.8c0.1,0.2,0.3,0.5,0.6,0.7s0.7,0.4,1.2,0.7c0.5,0.2,1.2,0.5,2,0.8c1.6,0.6,3,1.2,4,1.8
			c1.1,0.6,1.9,1.2,2.5,1.9s1,1.4,1.3,2.3c0.2,0.8,0.4,1.8,0.4,2.9c0,2.6-1,4.5-2.9,5.8c-1.9,1.3-4.7,2-8.2,2
			c-2.3,0-4.2-0.2-5.8-0.6c-1.5-0.4-2.6-0.7-3.2-1l1.2-6c1.3,0.5,2.5,0.9,3.9,1.2C288,57.1,289.3,57.3,290.6,57.3z"/>
	</g>
</g>
</svg>
