<?xml version="1.0" encoding="utf-8"?>
<!-- Generator: Adobe Illustrator 23.0.1, SVG Export Plug-In . SVG Version: 6.00 Build 0)  -->
<svg version="1.1" id="Layer_1" xmlns="http://www.w3.org/2000/svg" xmlns:xlink="http://www.w3.org/1999/xlink" x="0px" y="0px"
	 viewBox="0 0 80 80" style="enable-background:new 0 0 80 80;" xml:space="preserve">
<style type="text/css">
	.st0{fill:none;stroke:#000000;stroke-miterlimit:10;}
	.st1{fill:none;stroke:#000000;stroke-width:16;stroke-miterlimit:10;}
	.st2{fill:#ED2024;}
	.st3{fill:#FFFFFF;}
</style>
<g>
	<polygon class="st2" points="13.2,9.5 65.5,9.5 80,23.7 40.5,70.5 0,25 13.2,9.5 	"/>
	<path class="st3" d="M22.2,33.5c0-3.2,0.5-6,1.5-8.5c1-2.4,2.3-4.4,3.9-6c1.6-1.6,3.5-2.8,5.6-3.7c2.1-0.8,4.3-1.2,6.5-1.2
		c5.2,0,9.2,1.6,12.2,4.7c3,3.2,4.5,7.8,4.5,13.9c0,0.6,0,1.3-0.1,2c0,0.7-0.1,1.3-0.1,1.9H32.8c0.2,2.1,1.2,3.8,3,5
		c1.8,1.2,4.1,1.9,7,1.9c1.9,0,3.7-0.2,5.6-0.5c1.8-0.3,3.3-0.8,4.5-1.3l1.4,8.4c-0.6,0.3-1.3,0.6-2.2,0.8c-0.9,0.3-1.9,0.5-3.1,0.7
		c-1.1,0.2-2.3,0.4-3.6,0.5c-1.3,0.1-2.6,0.2-3.9,0.2c-3.3,0-6.1-0.5-8.5-1.5c-2.4-1-4.4-2.3-6-4c-1.6-1.7-2.8-3.7-3.5-6
		C22.6,38.7,22.2,36.2,22.2,33.5z M46.4,29.6c0-0.9-0.2-1.7-0.4-2.6c-0.3-0.8-0.6-1.6-1.2-2.2c-0.5-0.6-1.2-1.2-2-1.6
		c-0.8-0.4-1.8-0.6-3-0.6c-1.2,0-2.1,0.2-3,0.6c-0.8,0.4-1.5,0.9-2.1,1.6c-0.6,0.6-1,1.4-1.3,2.2c-0.3,0.9-0.5,1.7-0.7,2.6H46.4z"/>
</g>
</svg>
