<?xml version="1.0" encoding="utf-8"?>
<!-- Generator: Adobe Illustrator 23.0.1, SVG Export Plug-In . SVG Version: 6.00 Build 0)  -->
<svg version="1.1" id="Layer_1" xmlns="http://www.w3.org/2000/svg" xmlns:xlink="http://www.w3.org/1999/xlink" x="0px" y="0px"
	 viewBox="0 0 136.7 95.4" style="enable-background:new 0 0 136.7 95.4;" xml:space="preserve">
<style type="text/css">
	.st0{fill:#ED2024;}
	.st1{fill:#FFFFFF;}
</style>
<g>
	<polygon class="st0" points="38.3,14.7 97.9,14.7 114.5,31 69.5,84.3 23.2,32.4 	"/>
	<g>
		<path class="st1" d="M48.6,42.1c0-3.7,0.6-6.9,1.7-9.7c1.1-2.8,2.6-5.1,4.5-6.9c1.8-1.8,4-3.2,6.4-4.2c2.4-0.9,4.9-1.4,7.4-1.4
			c5.9,0,10.5,1.8,14,5.4c3.4,3.6,5.1,8.9,5.1,15.9c0,0.7,0,1.4-0.1,2.2s-0.1,1.5-0.2,2.2H60.6c0.3,2.4,1.4,4.3,3.4,5.8
			c2,1.4,4.7,2.1,8,2.1c2.2,0,4.3-0.2,6.4-0.6c2.1-0.4,3.8-0.9,5.1-1.5l1.6,9.5c-0.6,0.3-1.5,0.6-2.5,0.9c-1.1,0.3-2.2,0.6-3.5,0.8
			S76.4,63,75,63.2c-1.5,0.2-2.9,0.2-4.4,0.2c-3.7,0-7-0.6-9.7-1.7c-2.8-1.1-5-2.6-6.9-4.5c-1.8-1.9-3.2-4.2-4-6.8
			C49,48,48.6,45.2,48.6,42.1z M76.2,37.6c-0.1-1-0.2-2-0.5-2.9s-0.7-1.8-1.3-2.5c-0.6-0.7-1.4-1.3-2.3-1.8s-2.1-0.7-3.4-0.7
			s-2.4,0.2-3.4,0.7c-0.9,0.4-1.7,1-2.4,1.8c-0.6,0.7-1.1,1.6-1.5,2.6c-0.3,1-0.6,2-0.7,3h15.5L76.2,37.6L76.2,37.6z"/>
	</g>
</g>
</svg>
